# xmcd
#
# Track frame offsets:
#	150
#	17013
#	35005
#	50001
#	68340
#	83791
#	105047
#	120454
#	137202
#	156608
#	170773
#	183365
#	198809
#	216863
#	231155
#	249101
#	267531
#	285735
#	301496
#
# Disc length: 4227 seconds
#
# Revision: 2
# Processed by: cddbd v1.5.2PL0 Copyright (c) Steve Scherf et al.
# Submitted via: EasyCDDAExtractor 11.5.0.1
#
DISCID=09108113
DTITLE=Various Artist - NCT 069
DYEAR=2005
DGENRE=Country
TTITLE0=Dierks Bentley - Lot Of Leaving Left To Do
TTITLE1=Lonestar - Class Reunion (That Used To Be Me)
TTITLE2=Jo Dee Messina - My Give A Damn's Busted
TTITLE3=Kenny Chesney - Anything But Mine
TTITLE4=Trace Adkins - Songs About Me
TTITLE5=Chely Wright - The Bumper Of My SUV
TTITLE6=Blake Shelton - Goodbye Time
TTITLE7=Tift Merritt - Good Hearted Man
TTITLE8=Jedd Hughes - Soldier For The Lonely
TTITLE9=Julie Roberts - Wake Up Older
TTITLE10=Blue County - Nothing But Cowboy Boots
TTITLE11=Jimmy Buffett - Piece Of Work
TTITLE12=John Arthur Martinez - If I Didn't Care
TTITLE13=Sawyer Brown and Robert Randolph - Mission Temple Fireworks Stand
TTITLE14=Aaron Lines - Waitin' On The Wonderful
TTITLE15=Rebecca Lynn Howard - That's Why I Hate Pontiacs
TTITLE16=George Canyon - My Name
TTITLE17=Elbert West - Kimberly Cooper's Eyes
TTITLE18=Zona Jones - Two Hearts
EXTD=
EXTT0=
EXTT1=
EXTT2=
EXTT3=
EXTT4=
EXTT5=
EXTT6=
EXTT7=
EXTT8=
EXTT9=
EXTT10=
EXTT11=
EXTT12=
EXTT13=
EXTT14=
EXTT15=
EXTT16=
EXTT17=
EXTT18=
PLAYORDER=
